<svg
  width="44"
  height="45"
  viewBox="0 0 44 45"
  fill="none"
  xmlns="http://www.w3.org/2000/svg"
>
<rect
    x="9.15527e-05"
    y="0.922974"
    width="43.9522"
    height="43.9522"
    rx="3.29641"
    fill="#FF385C"
  />
<path
    d="M10.9875 13.0098H17.5803C18.746 13.0098 19.864 13.4729 20.6882 14.2972C21.5125 15.1214 21.9756 16.2394 21.9756 17.405V32.7883C21.9756 31.914 21.6283 31.0756 21.0101 30.4574C20.3919 29.8392 19.5534 29.4919 18.6791 29.4919H10.9875V13.0098Z"
    stroke="white"
    stroke-width="2.19761"
    stroke-linecap="round"
    stroke-linejoin="round"
  />
<path
    d="M32.9641 13.0098H26.3713C25.2056 13.0098 24.0877 13.4729 23.2634 14.2972C22.4392 15.1214 21.9761 16.2394 21.9761 17.405V32.7883C21.9761 31.914 22.3234 31.0756 22.9416 30.4574C23.5598 29.8392 24.3983 29.4919 25.2725 29.4919H32.9641V13.0098Z"
    stroke="white"
    stroke-width="2.19761"
    stroke-linecap="round"
    stroke-linejoin="round"
  />
</svg>
