<svg
  width="70"
  height="69"
  viewBox="0 0 70 69"
  fill="none"
  xmlns="http://www.w3.org/2000/svg"
>
<circle cx="35.2992" cy="34.3333" r="34.3333" fill="#FF385C" />
<path
    d="M12.1769 29.1182V25.2245H28.314C29.0593 25.2245 29.7879 25.4395 30.4075 25.8423C31.0272 26.245 31.5102 26.8174 31.7955 27.4871C32.0807 28.1568 32.1554 28.8938 32.0101 29.6047C31.8648 30.3157 31.5061 30.9689 30.9792 31.4816L27.9535 34.4245H42.1323V38.3207H27.3845C26.6392 38.3206 25.9106 38.1057 25.291 37.7029C24.6713 37.3002 24.1883 36.7278 23.903 36.0581C23.6178 35.3884 23.5431 34.6514 23.6884 33.9404C23.8336 33.2294 24.1924 32.5763 24.7193 32.0636L27.745 29.1206L12.1769 29.1182Z"
    fill="#FCFCFC"
  />
<path
    d="M59.8231 29.1182V25.2245H43.686C42.9408 25.2247 42.2123 25.4399 41.5928 25.8427C40.9732 26.2454 40.4904 26.8179 40.2052 27.4875C39.9201 28.1572 39.8454 28.8941 39.9907 29.605C40.1361 30.3159 40.4948 30.969 41.0217 31.4816L44.0474 34.4246H29.8702V38.3207H44.6189C45.3642 38.3207 46.0927 38.1057 46.7124 37.703C47.3321 37.3002 47.8151 36.7278 48.1003 36.0581C48.3856 35.3884 48.4603 34.6515 48.315 33.9405C48.1697 33.2295 47.8109 32.5764 47.2841 32.0637L44.2583 29.1207L59.8231 29.1182Z"
    fill="#FCFCFC"
  />
<path d="M39.0021 40.9163H33.123V44.8435H39.0021V40.9163Z" fill="#FCFCFC" />
</svg>
