<svg
  width="21"
  height="12"
  viewBox="0 0 21 12"
  fill="none"
  xmlns="http://www.w3.org/2000/svg"
>
<path
    d="M1.90902 11.8806L0 9.96466L7.69498 2.26968C8.05105 1.91363 8.50479 1.6713 8.99873 1.57341C9.49266 1.47551 10.0046 1.52645 10.4695 1.71978C10.9345 1.91311 11.3315 2.24012 11.6104 2.65936C11.8894 3.07861 12.0375 3.57122 12.0362 4.07476V6.96429L18.7957 0.201294L20.7047 2.11032L13.675 9.14354C13.3193 9.49917 12.8662 9.74136 12.3729 9.83947C11.8796 9.93758 11.3683 9.88721 10.9036 9.69474C10.439 9.50228 10.0418 9.17635 9.76237 8.75816C9.48293 8.33998 9.33377 7.84834 9.33375 7.34539V4.45587L1.90902 11.8806Z"
    fill="#FF385C"
  />
</svg>
