<svg width="200" height="18" viewBox="0 0 200 18" fill="none" xmlns="http://www.w3.org/2000/svg">
<g clip-path="url(#clip0_54_362)">
<path d="M1.90902 14.8806L0 12.9647L7.69498 5.26968C8.05105 4.91363 8.50479 4.6713 8.99873 4.57341C9.49266 4.47551 10.0046 4.52645 10.4695 4.71978C10.9345 4.91311 11.3315 5.24012 11.6104 5.65936C11.8894 6.07861 12.0375 6.57122 12.0362 7.07476V9.96429L18.7957 3.20129L20.7047 5.11032L13.675 12.1435C13.3193 12.4992 12.8662 12.7414 12.3729 12.8395C11.8796 12.9376 11.3683 12.8872 10.9036 12.6947C10.439 12.5023 10.0418 12.1763 9.76237 11.7582C9.48293 11.34 9.33377 10.8483 9.33375 10.3454V7.45587L1.90902 14.8806Z" fill="#FF385C"/>
<path d="M168.212 16.1382C168.209 16.1057 168.213 16.0729 168.225 16.0423C168.237 16.0117 168.255 15.984 168.278 15.9614C168.302 15.9388 168.33 15.9218 168.361 15.9116C168.393 15.9014 168.425 15.8984 168.458 15.9026H169.293C169.325 15.8984 169.358 15.9014 169.389 15.9116C169.42 15.9218 169.449 15.9388 169.472 15.9614C169.496 15.984 169.514 16.0117 169.526 16.0423C169.537 16.0729 169.542 16.1057 169.539 16.1382V16.8104C169.542 16.8429 169.537 16.8757 169.526 16.9063C169.514 16.937 169.496 16.9646 169.472 16.9872C169.449 17.0098 169.42 17.0268 169.389 17.037C169.358 17.0472 169.325 17.0503 169.293 17.046H168.468C168.436 17.0503 168.403 17.0472 168.372 17.037C168.341 17.0268 168.312 17.0098 168.289 16.9872C168.265 16.9646 168.247 16.937 168.235 16.9063C168.224 16.8757 168.219 16.8429 168.222 16.8104L168.212 16.1382Z" fill="white"/>
<path d="M171.978 11.7105H171.167C171.025 11.7105 170.942 11.6413 170.942 11.4992V11.0627C170.94 11.0331 170.944 11.0033 170.955 10.9757C170.965 10.948 170.982 10.9231 171.004 10.9028C171.025 10.8824 171.051 10.8673 171.08 10.8584C171.108 10.8495 171.138 10.8471 171.167 10.8513H171.978V9.99208C171.978 8.8626 172.543 8.33252 173.71 8.33252H174.75C174.902 8.33252 174.971 8.40527 174.971 8.54386V8.98041C174.971 9.12246 174.902 9.19174 174.75 9.19174H173.842C173.184 9.19174 172.969 9.41694 172.969 9.96782V10.8513H174.75C174.902 10.8513 174.971 10.9241 174.971 11.0627V11.4992C174.971 11.6413 174.902 11.7105 174.75 11.7105H172.969V16.8347C172.969 16.9733 172.9 17.0461 172.747 17.0461H172.182C172.03 17.0461 171.957 16.9733 171.957 16.8347L171.978 11.7105ZM176.253 8.54386C176.253 8.40527 176.323 8.33252 176.475 8.33252H177.04C177.196 8.33252 177.265 8.40527 177.265 8.54386V9.42734C177.265 9.56939 177.196 9.6387 177.04 9.6387H176.475C176.323 9.6387 176.253 9.56939 176.253 9.42734V8.54386ZM176.253 11.0627C176.253 10.9241 176.323 10.8513 176.475 10.8513H177.04C177.196 10.8513 177.265 10.9241 177.265 11.0627V16.8347C177.265 16.9733 177.196 17.0461 177.04 17.0461H176.475C176.323 17.0461 176.253 16.9733 176.253 16.8347V11.0627Z" fill="white"/>
<path d="M181.256 16.1868C181.285 16.1828 181.314 16.1854 181.342 16.1946C181.369 16.2038 181.394 16.2193 181.415 16.2398C181.435 16.2603 181.451 16.2852 181.46 16.3127C181.469 16.3402 181.472 16.3694 181.468 16.3981V16.8347C181.472 16.8634 181.469 16.8926 181.46 16.9201C181.451 16.9476 181.435 16.9726 181.415 16.9931C181.394 17.0136 181.369 17.029 181.342 17.0382C181.314 17.0474 181.285 17.0501 181.256 17.046H180.726C179.652 17.046 179.219 16.6337 179.219 15.5978V8.54379C179.216 8.51439 179.22 8.4847 179.23 8.45699C179.24 8.42927 179.257 8.40429 179.278 8.3839C179.3 8.36352 179.325 8.34828 179.354 8.33937C179.382 8.33045 179.412 8.32808 179.441 8.33245H180.033C180.062 8.32841 180.091 8.33109 180.119 8.34028C180.146 8.34947 180.171 8.36493 180.192 8.38543C180.212 8.40592 180.228 8.4309 180.237 8.45838C180.246 8.48587 180.249 8.5151 180.245 8.54379V15.5389C180.245 16.0447 180.387 16.1868 180.986 16.1868H181.256Z" fill="white"/>
<path d="M187.143 12.6424C187.143 11.8767 186.966 11.7104 186.037 11.7104H185.459C184.378 11.7104 183.986 12.1123 183.986 13.0304V16.8416C183.986 16.9801 183.917 17.0529 183.765 17.0529H183.2C183.047 17.0529 182.975 16.9801 182.975 16.8416V11.0625C182.975 10.9239 183.047 10.8512 183.2 10.8512H183.636C183.789 10.8512 183.858 10.9239 183.858 11.0625V11.8525C184.104 11.1942 184.693 10.8512 185.591 10.8512H186.283C187.261 10.8512 187.804 11.1976 187.981 11.9599C188.203 11.2288 188.806 10.8512 189.758 10.8512H190.545C191.758 10.8512 192.312 11.3813 192.312 12.535V16.8346C192.314 16.8639 192.31 16.8933 192.299 16.9207C192.289 16.9481 192.273 16.9728 192.251 16.993C192.23 17.0132 192.205 17.0285 192.177 17.0377C192.149 17.0468 192.119 17.0497 192.09 17.046H191.512C191.482 17.0503 191.453 17.048 191.424 17.0391C191.396 17.0301 191.37 17.0149 191.349 16.9945C191.328 16.9741 191.311 16.9491 191.301 16.9214C191.291 16.8937 191.287 16.864 191.29 16.8346V12.6424C191.29 11.8767 191.124 11.7104 190.195 11.7104H189.616C188.532 11.7104 188.144 12.1123 188.144 13.0304V16.8416C188.146 16.8708 188.142 16.9002 188.132 16.9276C188.121 16.955 188.105 16.9797 188.083 16.9999C188.062 17.0202 188.037 17.0354 188.009 17.0446C187.981 17.0537 187.951 17.0566 187.922 17.0529H187.358C187.205 17.0529 187.132 16.9801 187.132 16.8416L187.143 12.6424Z" fill="white"/>
<path d="M195.032 12.9369C195.032 13.3596 195.253 13.5017 195.725 13.5017H198.365C199.529 13.5017 200 13.8897 200 15.0677V15.48C200 16.658 199.529 17.046 198.365 17.046H195.527C194.384 17.046 193.902 16.5852 193.902 15.4904V15.4072C193.9 15.378 193.904 15.3486 193.915 15.3212C193.925 15.2938 193.942 15.2691 193.963 15.2489C193.984 15.2286 194.01 15.2134 194.037 15.2042C194.065 15.1951 194.095 15.1922 194.124 15.1959H194.654C194.806 15.1959 194.879 15.2687 194.879 15.4072V15.622C194.879 16.0447 195.115 16.1868 195.596 16.1868H198.292C198.763 16.1868 198.985 16.0447 198.985 15.622V14.891C198.985 14.4683 198.76 14.3263 198.292 14.3263H195.645C194.491 14.3263 194.02 13.9382 194.02 12.7602V12.4138C194.02 11.2393 194.491 10.8478 195.645 10.8478H198.223C199.352 10.8478 199.834 11.3086 199.834 12.4034V12.4865C199.834 12.6251 199.764 12.6979 199.612 12.6979H199.089C199.059 12.7021 199.029 12.6997 199.001 12.6908C198.973 12.6819 198.947 12.6668 198.925 12.6465C198.904 12.6262 198.887 12.6012 198.876 12.5735C198.866 12.5459 198.861 12.5161 198.864 12.4865V12.2717C198.864 11.8456 198.628 11.7035 198.171 11.7035H195.745C195.274 11.7035 195.052 11.8456 195.052 12.2717L195.032 12.9369Z" fill="white"/>
<path d="M33.7075 -2.19542e-05H31.2823C28.9575 -2.19542e-05 27.8176 1.08093 27.8176 3.33988V4.93016H25.9987V7.11635H27.8176V17.046H30.4681V7.11635H34.1753V4.93016H30.4681V3.61013C30.4681 2.54995 30.8146 2.17923 32.0791 2.17923H34.1579V-0.00695801L33.7075 -2.19542e-05Z" fill="white"/>
<path d="M42.3934 4.93005C40.4809 4.93005 39.3272 5.66456 38.9287 7.09546V4.93005H36.597V17.0563H39.244V10.0889C39.244 8.13139 40.1448 7.11624 42.4246 7.11624H43.9455V4.93005H42.3934Z" fill="white"/>
<path d="M58.2857 14.8528C57.9392 14.8528 57.7799 14.6796 57.7799 14.3262V8.22146C57.7799 5.94173 56.6989 4.93005 54.3464 4.93005H49.3019C45.6259 4.93005 46.1421 8.54367 46.1421 8.54367H48.6575V8.01704C48.6575 7.32411 49.049 7.09546 49.7869 7.09546H53.1961C54.8314 7.09546 55.1294 7.39343 55.1294 8.73078V9.88102H48.893C46.6133 9.88102 45.6917 10.5947 45.6917 12.9438V13.9832C45.6917 16.2664 46.6133 17.0494 48.893 17.0494H52.0112C53.8059 17.0494 54.9354 16.3564 55.3962 15.0433V15.2062C55.3962 16.3356 55.9505 17.0494 57.3537 17.0494H58.8989V14.8563L58.2857 14.8528ZM55.1294 12.6181C55.1294 14.1633 54.4365 14.8771 52.621 14.8771H49.5028C48.699 14.8771 48.3526 14.6241 48.3526 13.8861V12.9646C48.3526 12.2266 48.7441 11.9979 49.5028 11.9979H55.1225L55.1294 12.6181Z" fill="white"/>
<path d="M70.1279 4.93005H67.3561C65.5129 4.93005 64.4077 5.64377 63.9712 7.00884V4.93005H61.6429V17.0563H64.2934V9.3752C64.2934 7.80918 64.9621 7.11624 66.8053 7.11624H68.9914C70.6268 7.11624 70.9282 7.39343 70.9282 8.75157V17.0459H73.5752V8.22146C73.5752 5.94173 72.5358 4.93005 70.1452 4.93005" fill="white"/>
<path d="M85.4693 9.88102H80.4005C79.6175 9.88102 79.2502 9.62811 79.2502 8.91439V8.08287C79.2502 7.34837 79.6175 7.09546 80.4005 7.09546H84.662C85.3792 7.09546 85.743 7.32411 85.7846 7.90964V8.54367H88.3484V7.96855C88.3484 5.8274 87.4026 4.93005 85.1921 4.93005H79.7803C77.5214 4.93005 76.5998 5.73386 76.5998 7.99281V8.93518C76.5998 11.2877 77.5214 12.0014 79.7803 12.0014H84.8699C85.6529 12.0014 86.0202 12.2994 86.0202 13.0131V13.8896C86.0202 14.6276 85.6529 14.8805 84.8699 14.8805H80.0783C79.3611 14.8805 78.9939 14.6692 78.9592 14.0628V13.4288H76.3711V14.0559C76.3884 16.159 77.3343 17.0459 79.5725 17.0459H85.4623C87.7421 17.0459 88.6637 16.2629 88.6637 13.9797V12.9403C88.6637 10.5913 87.7421 9.87757 85.4623 9.87757" fill="white"/>
<path d="M100.464 4.93005H94.8897C92.5164 4.93005 91.4596 5.94173 91.4596 8.22146V13.7649C91.4596 16.0446 92.499 17.0598 94.8897 17.0598H100.464C102.723 17.0598 103.666 16.159 103.666 13.9936V12.9126H101.116V13.9277C101.116 14.6207 100.724 14.8701 99.9411 14.8701H96.0434C94.3838 14.8701 94.0859 14.593 94.0859 13.2348V8.76542C94.0859 7.40728 94.3838 7.13009 96.0434 7.13009H99.9342C100.717 7.13009 101.109 7.38303 101.109 8.07596V9.08763H103.662V8.00666C103.662 5.84126 102.72 4.9439 100.461 4.9439" fill="white"/>
<path d="M115.3 4.93018H112.649C111.063 4.93018 109.978 5.46028 109.448 6.49621V0H106.801V17.046H109.448V9.37532C109.448 7.80931 110.117 7.11637 111.96 7.11637H114.15C115.785 7.11637 116.083 7.39355 116.083 8.75169V17.046H118.733V8.22159C118.733 5.94186 117.673 4.93018 115.3 4.93018" fill="white"/>
<path d="M131.424 4.93018V12.6182C131.424 14.1842 130.756 14.8737 128.912 14.8737H126.702C125.067 14.8737 124.79 14.5965 124.79 13.2384V4.93018H122.118V13.7512C122.118 16.0309 123.203 17.0461 125.583 17.0461H128.355C130.149 17.0461 131.303 16.3531 131.74 15.0192V17.0461H134.068V4.9198L131.424 4.93018Z" fill="white"/>
<path d="M141.423 14.8564C140.502 14.8564 140.249 14.6035 140.249 13.817V0H137.598V14.1427C137.598 16.2215 138.475 17.046 140.64 17.046H142.414V14.8564H141.423Z" fill="white"/>
<path d="M148.159 4.93013V1.84314H145.508V4.93013H143.689V7.11632H145.508V13.959C145.508 16.1452 146.454 17.046 148.734 17.046H151.637V14.8563H149.472C148.411 14.8563 148.159 14.6277 148.159 13.4289V7.11632H151.623V4.93013H148.159Z" fill="white"/>
<path d="M154.048 4.93005V7.11624H162.111L154.118 14.7385C154.019 14.8199 153.939 14.9219 153.883 15.0373C153.827 15.1528 153.798 15.279 153.796 15.4071V17.0425H165.575V14.8528H157.26L165.253 7.23058C165.352 7.14986 165.432 7.0485 165.488 6.9336C165.543 6.8187 165.573 6.69303 165.575 6.56538V4.93005H154.048Z" fill="white"/>
</g>
<defs>
<clipPath id="clip0_54_362">
<rect width="200" height="17.046" fill="white"/>
</clipPath>
</defs>
</svg>
