<svg
  width="62"
  height="68"
  viewBox="0 0 62 68"
  fill="none"
  xmlns="http://www.w3.org/2000/svg"
>
<path
    d="M53.0077 31.202H9.07396C5.60768 31.202 2.79771 34.012 2.79771 37.4783V59.4451C2.79771 62.9114 5.60768 65.7214 9.07396 65.7214H53.0077C56.4739 65.7214 59.2839 62.9114 59.2839 59.4451V37.4783C59.2839 34.012 56.4739 31.202 53.0077 31.202Z"
    stroke="white"
    stroke-width="3.92265"
    stroke-linecap="round"
    stroke-linejoin="round"
  />
<path
    d="M15.3502 31.202V18.6495C15.3502 14.4881 17.0033 10.4972 19.9459 7.5546C22.8884 4.61204 26.8794 2.95892 31.0408 2.95892C35.2022 2.95892 39.1932 4.61204 42.1357 7.5546C45.0783 10.4972 46.7314 14.4881 46.7314 18.6495V31.202"
    stroke="white"
    stroke-width="3.92265"
    stroke-linecap="round"
    stroke-linejoin="round"
  />
</svg>
