<svg width="155" height="155" viewBox="0 0 155 155" fill="none" xmlns="http://www.w3.org/2000/svg">
<path d="M107.59 148.568C103.617 153.435 95.468 155.757 89.5377 153.733C83.6074 151.71 73.9101 151.869 68.0265 154.088C62.1428 156.307 53.9468 154.274 49.8068 149.537C45.6668 144.801 37.2096 140.101 30.9996 139.094C24.7896 138.087 18.7101 132.213 17.498 126.04C16.2858 119.867 11.2973 111.597 6.43001 107.587C1.56272 103.578 -0.768373 95.4657 1.26433 89.5354C3.29703 83.6052 3.12921 73.8985 0.900696 68.0242C-1.32782 62.1499 0.72352 53.9445 5.46028 49.7951C10.197 45.6458 14.8872 37.198 15.9035 30.988C16.9199 24.778 22.7849 18.7078 28.9576 17.4864C35.1303 16.2649 43.4289 11.295 47.4011 6.41839C51.3733 1.54176 59.5227 -0.770676 65.4623 1.2527C71.4019 3.27608 81.0899 3.11756 86.9735 0.898374C92.8572 -1.32082 101.053 0.711891 105.193 5.44865C109.333 10.1854 117.8 14.8849 124 15.8919C130.201 16.8989 136.29 22.7732 137.502 28.9459C138.714 35.1186 143.703 43.4173 148.57 47.3988C153.437 51.3803 155.768 59.5204 153.736 65.4507C151.703 71.381 151.871 81.0876 154.099 86.9712C156.328 92.8549 154.276 101.042 149.54 105.182C144.803 109.322 140.104 117.788 139.096 123.998C138.089 130.208 132.215 136.278 126.042 137.49C119.87 138.703 111.571 143.691 107.59 148.568Z" fill="url(#paint0_linear_103_565)"/>
<path d="M148.99 77.4876C148.991 91.6273 144.8 105.45 136.946 117.208C129.092 128.965 117.927 138.13 104.864 143.542C91.8015 148.954 77.4271 150.371 63.5588 147.614C49.6906 144.857 36.9515 138.049 26.9526 128.051C16.9536 118.053 10.144 105.315 7.38478 91.4473C4.62558 77.5794 6.04076 63.2047 11.4514 50.1412C16.862 37.0776 26.025 25.9119 37.7816 18.0561C49.5382 10.2003 63.3603 6.00732 77.5 6.00732C96.4586 6.00732 114.641 13.5379 128.048 26.9428C141.454 40.3477 148.987 58.529 148.99 77.4876V77.4876Z" fill="#FF385C"/>
<path d="M146.35 79.0493C147.213 41.0133 117.079 9.47927 79.0428 8.61611C41.0068 7.75295 9.47274 37.8875 8.60958 75.9236C7.74642 113.96 37.881 145.494 75.9171 146.357C113.953 147.22 145.487 117.085 146.35 79.0493Z" fill="white"/>
<path d="M78.103 125.552C104.519 125.206 125.652 103.512 125.307 77.096C124.961 50.6804 103.266 29.5466 76.8508 29.8924C50.4352 30.2382 29.3014 51.9327 29.6472 78.3483C29.993 104.764 51.6874 125.898 78.103 125.552Z" fill="url(#paint1_radial_103_565)"/>
<path d="M65.7886 82.6925C63.5251 82.7357 61.3027 82.0849 59.4201 80.8276C57.563 79.5288 56.1373 77.7037 55.3267 75.5874C53.4311 70.2621 53.4311 64.4459 55.3267 59.1206C55.9985 57.5966 56.9904 56.2349 58.2351 55.1281C59.4797 54.0214 60.9479 53.1954 62.54 52.7062C64.1321 52.2171 65.8108 52.0763 67.4622 52.2933C69.1135 52.5104 70.6989 53.0803 72.1105 53.9643C73.9563 55.2452 75.3834 57.0421 76.2132 59.13C77.234 61.7383 77.7162 64.5263 77.6305 67.326C77.7019 70.1528 77.2171 72.9661 76.2039 75.606C75.3908 77.7183 73.9695 79.542 72.1198 80.8463C70.2458 82.0902 68.0375 82.7342 65.7886 82.6925ZM65.7886 77.5362C66.6313 77.5274 67.455 77.2847 68.1678 76.8352C68.8807 76.3858 69.4548 75.7472 69.826 74.9906C70.833 73.2998 71.3303 70.7574 71.3179 67.3633C71.3657 65.4752 71.1364 63.5903 70.6372 61.7687C70.3101 60.5003 69.6464 59.3438 68.7164 58.4213C67.9191 57.6883 66.8716 57.288 65.7886 57.3024C64.9518 57.311 64.1336 57.5506 63.4244 57.9949C62.7153 58.4392 62.1426 59.0708 61.7698 59.82C60.7628 61.4983 60.253 64.0066 60.2406 67.3447C60.196 69.2517 60.4284 71.155 60.9306 72.9952C61.249 74.2828 61.917 75.4573 62.8607 76.3893C63.6517 77.1358 64.7011 77.5469 65.7886 77.5362V77.5362Z" fill="#FF385C"/>
<path d="M82.4512 82.0457L94.6567 57.9051V57.7092H80.4464V52.6182H101.09V57.7745L88.8756 82.0178L82.4512 82.0457Z" fill="#FF385C"/>
<path d="M59.9889 102.952H56.0354V90.7374H60.1195C61.1923 90.7062 62.2541 90.9604 63.1965 91.4741C64.0507 91.9553 64.7397 92.6833 65.1732 93.5627C65.6596 94.5801 65.8962 95.699 65.8632 96.8262C65.8928 97.9591 65.6565 99.0832 65.1732 100.108C64.7319 100.999 64.0293 101.735 63.1592 102.216C62.1847 102.733 61.0918 102.987 59.9889 102.952V102.952ZM57.863 101.339H59.8677C60.6749 101.369 61.4756 101.186 62.1894 100.808C62.8038 100.459 63.2907 99.9234 63.5788 99.2785C63.9013 98.4989 64.0569 97.6603 64.0357 96.8169C64.0563 95.9825 63.9006 95.1533 63.5788 94.3832C63.3008 93.7431 62.8233 93.2099 62.2174 92.8634C61.5307 92.4946 60.7586 92.3145 59.9796 92.3412H57.863V101.339Z" fill="white"/>
<path d="M71.9986 90.7368V102.952H70.1338V90.7368H71.9986Z" fill="white"/>
<path d="M77.7053 102.952H75.7565L80.1483 90.7368H82.2742L86.6753 102.952H84.7172L81.2858 92.9467H81.1833L77.7053 102.952ZM78.041 98.1683H84.3815V99.7254H78.041V98.1683Z" fill="white"/>
<path d="M97.0345 93.9469C97.0099 93.6833 96.9268 93.4286 96.7913 93.2011C96.6558 92.9737 96.4713 92.7793 96.2513 92.6322C95.7293 92.307 95.1222 92.1447 94.5076 92.166C94.0615 92.159 93.6183 92.2382 93.2022 92.3991C92.8657 92.5361 92.5725 92.7616 92.3537 93.0518C92.1554 93.3218 92.0506 93.6492 92.0553 93.9842C92.0478 94.2507 92.1191 94.5135 92.2604 94.7395C92.4022 94.9495 92.5864 95.1274 92.8013 95.2617C93.0301 95.4058 93.274 95.5246 93.5286 95.616C93.7897 95.7092 94.0321 95.7838 94.2745 95.8491L95.468 96.1568C95.8758 96.2548 96.2749 96.3858 96.6615 96.5484C97.0723 96.7076 97.4585 96.9242 97.8084 97.1918C98.158 97.4575 98.4472 97.7944 98.657 98.1801C98.8824 98.6145 98.9947 99.0988 98.9833 99.5881C99 100.251 98.8111 100.902 98.4425 101.453C98.0616 102.014 97.5276 102.454 96.904 102.721C96.1335 103.053 95.2996 103.212 94.461 103.187C93.6475 103.207 92.8385 103.061 92.0833 102.758C91.4581 102.495 90.9165 102.066 90.5168 101.518C90.1278 100.955 89.9108 100.291 89.8921 99.6068H91.757C91.777 100.01 91.9275 100.396 92.1859 100.707C92.4482 101.008 92.7862 101.233 93.1649 101.36C93.5815 101.505 94.0199 101.577 94.461 101.574C94.9392 101.582 95.4143 101.497 95.8597 101.322C96.227 101.181 96.5492 100.942 96.7921 100.632C97.0271 100.336 97.1523 99.9667 97.1464 99.5881C97.158 99.2648 97.0482 98.9489 96.8387 98.7023C96.6076 98.4537 96.3241 98.2594 96.0088 98.1335C95.63 97.965 95.2368 97.8308 94.834 97.7326L93.3887 97.341C92.5342 97.1347 91.7393 96.7325 91.0669 96.1661C90.7843 95.9064 90.5613 95.5886 90.4132 95.2345C90.2651 94.8803 90.1955 94.4983 90.2091 94.1148C90.1888 93.4475 90.3887 92.7922 90.7779 92.2499C91.1817 91.7118 91.7183 91.2877 92.3351 91.0191C93.0295 90.7194 93.7794 90.5701 94.5356 90.5808C95.292 90.5681 96.0423 90.7175 96.7361 91.0191C97.33 91.2784 97.8447 91.6901 98.228 92.2126C98.5965 92.72 98.7985 93.3292 98.8061 93.9562L97.0345 93.9469Z" fill="white"/>
<path d="M136.113 90.5162C137.802 90.5162 139.171 89.1469 139.171 87.4578C139.171 85.7687 137.802 84.3994 136.113 84.3994C134.423 84.3994 133.054 85.7687 133.054 87.4578C133.054 89.1469 134.423 90.5162 136.113 90.5162Z" fill="#FF385C"/>
<path d="M19.4561 90.5162C21.1452 90.5162 22.5145 89.1469 22.5145 87.4578C22.5145 85.7687 21.1452 84.3994 19.4561 84.3994C17.767 84.3994 16.3978 85.7687 16.3978 87.4578C16.3978 89.1469 17.767 90.5162 19.4561 90.5162Z" fill="#FF385C"/>
<path d="M18.4491 72.2868C18.2725 72.322 18.1025 72.385 17.9456 72.4733C17.7977 72.5516 17.665 72.6559 17.5539 72.781C17.4391 72.9138 17.3477 73.0652 17.2836 73.2286C17.2141 73.4145 17.1701 73.609 17.153 73.8067C17.1166 74.1704 17.188 74.5368 17.3581 74.8604C17.5436 75.1883 17.8185 75.4567 18.1507 75.6343C18.5681 75.8476 19.0254 75.9715 19.4934 75.9979C19.9606 76.0495 20.4334 76.0051 20.8827 75.8674C21.2491 75.7623 21.5746 75.5476 21.8152 75.252C22.0457 74.9571 22.1821 74.5998 22.2068 74.2263C22.2362 73.9104 22.1948 73.5918 22.0856 73.2939C21.9898 73.0317 21.8135 72.8065 21.5821 72.6505C21.3362 72.4817 21.0497 72.3819 20.7522 72.3614L20.8268 72.0351L20.6496 74.0212L19.4281 73.9186L19.7079 70.6924L20.6403 70.7763C21.25 70.8158 21.8385 71.0152 22.3467 71.3544C22.7983 71.6767 23.1504 72.1193 23.363 72.6318C23.5848 73.1911 23.668 73.7958 23.6055 74.3941C23.5703 75.0638 23.3474 75.7101 22.9621 76.259C22.5931 76.7809 22.0816 77.1855 21.4888 77.4245C20.8063 77.6867 20.0704 77.7795 19.3442 77.695C18.7765 77.6542 18.2207 77.5121 17.7031 77.2754C17.2522 77.0721 16.8488 76.7767 16.519 76.4082C16.2093 76.0566 15.9773 75.6435 15.8383 75.196C15.6974 74.7281 15.6499 74.237 15.6984 73.7508C15.7283 73.3367 15.826 72.9304 15.9875 72.5479C16.1421 72.2043 16.3533 71.8891 16.6122 71.6155C16.8587 71.3408 17.1606 71.1215 17.498 70.9721C17.8339 70.8115 18.1984 70.7196 18.5703 70.7017L18.4491 72.2868Z" fill="#0D0A19"/>
<path d="M24.2395 68.9747L23.8479 70.681L16.9106 66.3546L17.3768 64.3032L25.5076 63.436L25.116 65.1424L18.8687 65.6925V65.7578L24.2395 68.9747ZM21.2464 68.4059L22.1789 64.3778L23.4283 64.6575L22.4959 68.6949L21.2464 68.4059Z" fill="#0D0A19"/>
<path d="M25.7594 62.7925L18.5237 60.0698L19.596 57.2166C19.7661 56.7272 20.047 56.2836 20.4166 55.9205C20.7372 55.6208 21.1396 55.4228 21.5728 55.3517C22.0326 55.2819 22.5027 55.3367 22.9342 55.5103C23.3745 55.6591 23.765 55.927 24.0624 56.2842C24.3542 56.6312 24.5273 57.0625 24.5566 57.515C24.5845 58.0339 24.4986 58.5527 24.3048 59.0348L23.5868 60.8997L22.3561 60.4428L22.9808 58.7738C23.0827 58.5286 23.1335 58.2653 23.13 57.9998C23.1273 57.797 23.0585 57.6006 22.9342 57.4404C22.7907 57.2697 22.6039 57.1408 22.3933 57.0674C22.1847 56.9785 21.9555 56.9495 21.7313 56.9835C21.5252 57.0207 21.336 57.1218 21.1905 57.2725C21.0122 57.4735 20.8758 57.7081 20.7895 57.9626L20.3979 58.9882L26.3841 61.2447L25.7594 62.7925ZM23.8946 57.6455L27.8574 57.0861L27.2233 58.7738L23.2698 59.2959L23.8946 57.6455Z" fill="#0D0A19"/>
<path d="M28.7991 55.339L27.9693 56.8775L22.3747 50.8727L23.3724 49.0078L31.4473 50.3225L30.6174 51.8611L24.4447 50.7422V50.7981L28.7991 55.339ZM26.0671 53.9963L28.0252 50.3505L29.1535 50.9566L27.1954 54.6024L26.0671 53.9963Z" fill="#0D0A19"/>
<path d="M26.0111 47.137L24.9015 46.3631L28.5473 41.1602L29.6475 41.9341L28.2862 43.8735L33.5171 47.5287L32.5847 48.8527L27.3538 45.1976L26.0111 47.137Z" fill="#0D0A19"/>
<path d="M30.6266 38.7373L36.5475 43.7165L35.4939 44.966L29.5823 39.9868L30.6266 38.7373Z" fill="#0D0A19"/>
<path d="M38.2073 41.8407L36.9485 43.0622L33.4518 35.6773L34.9624 34.2041L42.2726 37.8686L41.0139 39.09L35.4659 36.1809L35.4193 36.2275L38.2073 41.8407ZM35.9974 39.7428L38.9625 36.8522L39.8483 37.7846L36.8925 40.6752L35.9974 39.7428Z" fill="#0D0A19"/>
<path d="M44.7065 35.9767L40.352 29.5895L42.8696 27.8738C43.2886 27.5653 43.7798 27.3694 44.2962 27.3051C44.7448 27.2537 45.1986 27.3347 45.6016 27.5382C46.0158 27.7655 46.3702 28.0876 46.636 28.4782C46.9018 28.8687 47.0713 29.3167 47.1308 29.7853C47.1672 30.2355 47.0699 30.6863 46.8511 31.0814C46.5914 31.5396 46.2232 31.927 45.7788 32.2096L44.1377 33.2726L43.4011 32.191L44.7904 31.2586C45.0176 31.1129 45.2063 30.9146 45.3405 30.6805C45.4445 30.4864 45.4868 30.2652 45.4618 30.0464C45.4274 29.8157 45.3413 29.5958 45.21 29.403C45.0812 29.2102 44.9087 29.0504 44.7065 28.9368C44.5118 28.8349 44.2903 28.7958 44.0724 28.8249C43.8028 28.8667 43.5471 28.9722 43.3265 29.1326L42.394 29.7574L45.9932 35.0349L44.7065 35.9767Z" fill="#0D0A19"/>
<path d="M50.6646 32.0789L49.1074 32.8901L47.8952 24.806L49.7601 23.8735L55.6997 29.4681L54.1518 30.2886L49.6668 25.8969H49.6202L50.6646 32.0789ZM49.154 29.4402L52.8185 27.5193L53.4152 28.6569L49.7321 30.5684L49.154 29.4402Z" fill="#0D0A19"/>
<path d="M56.3522 29.2241L53.7134 21.9511L56.5853 20.9161C57.0648 20.7258 57.5818 20.6492 58.0959 20.6923C58.5344 20.7399 58.9493 20.915 59.2894 21.1958C59.6373 21.5054 59.8977 21.9009 60.0447 22.3427C60.2163 22.7716 60.2647 23.2399 60.1845 23.6948C60.1027 24.124 59.8912 24.5178 59.5784 24.823C59.1989 25.1837 58.7433 25.4546 58.2451 25.6156L56.3243 26.3149L55.8767 25.0841L57.5458 24.478C57.7989 24.3932 58.0331 24.2602 58.2357 24.0864C58.3936 23.9515 58.5019 23.7677 58.5435 23.5642C58.5769 23.347 58.5512 23.1247 58.4689 22.9208C58.3949 22.7076 58.2701 22.5156 58.1052 22.3614C57.9402 22.2289 57.7383 22.1508 57.5271 22.1376C57.2593 22.1312 56.9929 22.1787 56.7438 22.2775L55.7089 22.6504L57.8907 28.6646L56.3522 29.2241ZM59.0749 24.4873L62.0867 27.1355L60.3897 27.7508L57.4245 25.0934L59.0749 24.4873Z" fill="#0D0A19"/>
<path d="M63.989 26.6804L62.2826 27.0534L63.2151 18.9319L65.2758 18.4844L69.5183 25.4683L67.812 25.8412L64.651 20.4332V20.4332L63.989 26.6804ZM63.243 23.7339L67.2805 22.8575L67.5509 24.0976L63.5134 24.9834L63.243 23.7339Z" fill="#0D0A19"/>
<path d="M72.1106 18.8058L72.0547 17.4538L78.4045 17.2207V18.5727L76.0362 18.6567L76.2693 25.0345L74.6562 25.0904L74.4231 18.7126L72.1106 18.8058Z" fill="#0D0A19"/>
<path d="M79.486 24.9924L80.1201 17.2905L85.3137 17.7288L85.2018 19.0715L81.6399 18.7731L81.4907 20.638L84.7822 20.9084L84.6703 22.2511L81.3789 21.9807L81.2203 23.8456L84.8009 24.1439L84.689 25.4866L79.486 24.9924Z" fill="#0D0A19"/>
<path d="M90.9736 21.0299C91.0037 20.8874 91 20.7397 90.9628 20.5988C90.9255 20.4579 90.8558 20.3278 90.7591 20.2187C90.5279 19.984 90.227 19.8303 89.9013 19.7805C89.6767 19.735 89.4453 19.735 89.2206 19.7805C89.0462 19.8094 88.8822 19.8833 88.7451 19.9949C88.6222 20.1006 88.5398 20.2456 88.512 20.4052C88.4746 20.5267 88.4746 20.6567 88.512 20.7782C88.5612 20.8951 88.6307 21.0024 88.7171 21.0952C88.8261 21.194 88.9448 21.2814 89.0714 21.3563C89.2103 21.4468 89.357 21.5248 89.5097 21.5894L90.1531 21.8971C90.451 22.0271 90.7352 22.1864 91.0016 22.3726C91.2384 22.5429 91.4489 22.7471 91.6263 22.9787C91.7937 23.2065 91.9102 23.4675 91.9681 23.7442C92.026 24.0209 92.024 24.3067 91.962 24.5825C91.8831 25.0155 91.6713 25.4131 91.3559 25.7201C91.0323 26.0226 90.6271 26.2235 90.1904 26.2982C89.6516 26.4037 89.0974 26.4037 88.5586 26.2982C88.0107 26.195 87.488 25.9859 87.0201 25.6828C86.6115 25.4361 86.2866 25.0722 86.0877 24.6384C85.9071 24.1754 85.8681 23.6691 85.9758 23.1838L87.5236 23.5009C87.4794 23.7263 87.5069 23.9599 87.6022 24.169C87.6975 24.378 87.8559 24.5519 88.0551 24.6664C88.4878 24.9304 88.9976 25.0389 89.5004 24.9741C89.6937 24.946 89.8766 24.869 90.0319 24.7503C90.1718 24.6336 90.2673 24.4723 90.3023 24.2934C90.3378 24.1383 90.3145 23.9755 90.237 23.8366C90.1456 23.6807 90.0176 23.5494 89.864 23.4543C89.6551 23.3154 89.437 23.1908 89.2113 23.0813L88.4281 22.7083C87.8946 22.4787 87.4267 22.1197 87.0667 21.664C86.9174 21.4582 86.8156 21.2217 86.7689 20.9718C86.7221 20.7218 86.7315 20.4646 86.7963 20.2187C86.8687 19.7841 87.0855 19.3866 87.4117 19.0905C87.7466 18.7919 88.1556 18.589 88.5959 18.503C89.1032 18.3961 89.6271 18.3961 90.1344 18.503C90.6416 18.5916 91.1226 18.7923 91.5424 19.0905C91.9027 19.3449 92.1865 19.6932 92.3629 20.0975C92.5271 20.4993 92.5661 20.9413 92.4748 21.3656L90.9736 21.0299Z" fill="#0D0A19"/>
<path d="M94.116 20.8604L94.5542 19.5923L100.559 21.6436L100.084 22.9211L97.8457 22.1565L95.7851 28.1893L94.2559 27.6672L96.3259 21.625L94.116 20.8604Z" fill="#0D0A19"/>
<path d="M99.1512 29.4784L97.5754 28.7232L103.328 22.9048L105.193 23.8372L104.261 31.9587L102.685 31.2034L103.515 24.9841H103.468L99.1512 29.4784ZM100.373 26.6811L104.102 28.4714L103.543 29.6276L99.8132 27.8374L100.373 26.6811Z" fill="#0D0A19"/>
<path d="M104.848 32.3382L109.091 25.8765L111.646 27.5455C112.083 27.817 112.45 28.1875 112.718 28.6271C112.944 29.0068 113.054 29.4444 113.035 29.8859C112.995 30.3512 112.835 30.7981 112.569 31.182C112.328 31.5785 111.983 31.9011 111.571 32.1144C111.176 32.3001 110.734 32.3619 110.303 32.2916C109.787 32.2022 109.297 32.0018 108.867 31.7042L107.161 30.5852L107.888 29.485L109.408 30.4733C109.624 30.6245 109.868 30.7321 110.126 30.7904C110.327 30.835 110.536 30.812 110.723 30.7251C110.917 30.62 111.081 30.4657 111.198 30.2775C111.335 30.0928 111.416 29.8728 111.431 29.6435C111.437 29.4351 111.378 29.23 111.263 29.0561C111.11 28.8376 110.913 28.6534 110.685 28.5152L109.753 27.9092L106.219 33.2706L104.848 32.3382ZM110.275 31.6855L109.949 35.6763L108.475 34.6879L108.839 30.7158L110.275 31.6855Z" fill="#0D0A19"/>
<path d="M120.131 39.6391C119.62 40.1965 118.979 40.6193 118.266 40.8699C117.664 41.0716 117.018 41.1007 116.401 40.9538C115.776 40.7918 115.205 40.4705 114.741 40.0214C114.27 39.5792 113.921 39.0239 113.725 38.4083C113.549 37.7991 113.549 37.1527 113.725 36.5434C113.963 35.8413 114.35 35.1991 114.861 34.6614C115.371 34.1237 115.992 33.7032 116.681 33.4291C117.281 33.2197 117.928 33.1873 118.546 33.3359C119.166 33.5081 119.735 33.8303 120.202 34.2742C120.668 34.7182 121.019 35.2701 121.222 35.8814C121.402 36.4899 121.402 37.1377 121.222 37.7463C121.018 38.4567 120.643 39.1066 120.131 39.6391V39.6391ZM118.928 38.4922C119.265 38.1627 119.529 37.7655 119.702 37.3267C119.846 36.9853 119.879 36.6075 119.797 36.2462C119.715 35.8849 119.522 35.5584 119.245 35.3126C118.989 35.0581 118.665 34.8832 118.313 34.8091C117.942 34.7479 117.562 34.7999 117.222 34.9583C116.795 35.1584 116.411 35.4403 116.093 35.7882C115.761 36.1217 115.498 36.5179 115.319 36.9537C115.185 37.301 115.152 37.6795 115.226 38.0446C115.313 38.403 115.505 38.7275 115.776 38.9771C116.028 39.2366 116.354 39.4124 116.709 39.4806C117.075 39.5428 117.452 39.4941 117.79 39.3407C118.226 39.1435 118.615 38.854 118.928 38.4922V38.4922Z" fill="#0D0A19"/>
<path d="M127.693 47.5993L126.76 46.2473C126.908 46.1131 127.028 45.9516 127.115 45.7717C127.197 45.6026 127.245 45.4187 127.255 45.2309C127.267 45.0383 127.241 44.8452 127.18 44.6621C127.121 44.4604 127.026 44.2709 126.9 44.1027C126.691 43.7965 126.396 43.5595 126.052 43.422C125.698 43.2995 125.316 43.2801 124.951 43.3661C124.496 43.4783 124.068 43.6812 123.693 43.9628C123.302 44.2296 122.969 44.572 122.714 44.9698C122.512 45.287 122.412 45.6575 122.425 46.0328C122.445 46.3968 122.571 46.7469 122.788 47.0399C122.907 47.208 123.052 47.3559 123.217 47.4781C123.365 47.5939 123.532 47.6823 123.711 47.7392C123.889 47.795 124.076 47.814 124.261 47.7951C124.456 47.7772 124.646 47.7235 124.821 47.6366L125.753 48.9886C125.436 49.1572 125.092 49.2706 124.737 49.3243C124.367 49.394 123.988 49.394 123.618 49.3243C123.228 49.2409 122.857 49.0826 122.527 48.8581C122.165 48.603 121.85 48.2876 121.595 47.9256C121.214 47.4019 120.976 46.7882 120.905 46.1447C120.836 45.5017 120.959 44.8528 121.259 44.2798C121.606 43.6214 122.113 43.0604 122.732 42.6481C123.322 42.1916 124.018 41.8931 124.756 41.7809C125.389 41.6823 126.038 41.7731 126.621 42.042C127.202 42.3142 127.703 42.7317 128.075 43.2542C128.321 43.5989 128.513 43.9794 128.644 44.3824C128.762 44.7527 128.812 45.1412 128.793 45.5293C128.771 45.9147 128.673 46.2918 128.504 46.6389C128.296 47.0066 128.021 47.3323 127.693 47.5993V47.5993Z" fill="#0D0A19"/>
<path d="M133.129 51.9234L133.894 53.378L129.446 55.6998C128.996 55.9557 128.481 56.0728 127.965 56.0363C127.449 55.9998 126.955 55.8113 126.546 55.4946C126.088 55.14 125.716 54.6877 125.455 54.1706C125.18 53.6583 125.02 53.0916 124.989 52.5109C124.974 52.006 125.097 51.5065 125.343 51.0656C125.617 50.6301 126.008 50.281 126.471 50.0586L130.919 47.7368L131.674 49.1821L127.357 51.4479C127.11 51.5653 126.9 51.7493 126.751 51.9794C126.604 52.1966 126.526 52.4535 126.527 52.716C126.521 53.0029 126.592 53.2863 126.732 53.5365C126.862 53.7942 127.055 54.0154 127.292 54.1799C127.505 54.3289 127.759 54.4101 128.019 54.413C128.295 54.4236 128.569 54.3592 128.812 54.2265L133.129 51.9234Z" fill="#0D0A19"/>
<path d="M127.469 58.0113L134.733 55.3726L135.777 58.2351C135.965 58.7151 136.038 59.2323 135.991 59.7457C135.952 60.1863 135.776 60.6037 135.488 60.9392C135.183 61.2898 134.79 61.5535 134.35 61.7038C133.918 61.8761 133.447 61.9246 132.989 61.8436C132.563 61.7558 132.173 61.5413 131.87 61.2282C131.51 60.8504 131.236 60.3986 131.068 59.9042L130.378 57.9834L131.609 57.5358L132.215 59.2048C132.301 59.4577 132.433 59.6918 132.607 59.8948C132.741 60.0475 132.921 60.1522 133.12 60.1932C133.34 60.2266 133.565 60.2008 133.772 60.1186C133.989 60.0517 134.183 59.9258 134.332 59.755C134.467 59.5922 134.542 59.3883 134.546 59.1769C134.556 58.9096 134.512 58.6431 134.416 58.3936L134.033 57.3586L128.056 59.5498L127.469 58.0113ZM132.206 60.734L129.558 63.7458L128.942 62.0487L131.6 59.0743L132.206 60.734Z" fill="#0D0A19"/>
<path d="M136.01 67.2518C136.145 67.2132 136.27 67.1445 136.375 67.0508C136.48 66.9572 136.563 66.841 136.616 66.711C136.715 66.408 136.715 66.0815 136.616 65.7785C136.575 65.5526 136.49 65.3371 136.364 65.1445C136.267 64.9932 136.128 64.8734 135.964 64.7995C135.812 64.7476 135.648 64.7476 135.497 64.7995C135.375 64.8226 135.261 64.8809 135.171 64.9673C135.079 65.0554 135.008 65.164 134.966 65.2843C134.92 65.4242 134.885 65.5677 134.863 65.7133C134.853 65.8779 134.853 66.0429 134.863 66.2075V66.8415C134.864 67.1547 134.832 67.4671 134.77 67.7739C134.716 68.0576 134.619 68.3313 134.481 68.5852C134.352 68.8243 134.174 69.0339 133.959 69.2006C133.72 69.3766 133.447 69.5006 133.157 69.5642C132.733 69.6676 132.288 69.6416 131.879 69.4896C131.468 69.3344 131.112 69.0621 130.854 68.7064C130.543 68.2529 130.324 67.7429 130.21 67.2052C130.081 66.6616 130.056 66.0984 130.136 65.5454C130.207 65.0838 130.411 64.6529 130.723 64.3053C131.067 63.9512 131.508 63.7077 131.991 63.606L132.346 65.1445C132.121 65.2042 131.919 65.331 131.768 65.5081C131.625 65.6816 131.535 65.8917 131.506 66.1142C131.443 66.6181 131.555 67.1285 131.824 67.5595C131.934 67.7253 132.085 67.8601 132.262 67.9511C132.422 68.027 132.604 68.0435 132.775 67.9977C132.853 67.9863 132.928 67.9589 132.996 67.9172C133.063 67.8755 133.121 67.8204 133.166 67.7553C133.271 67.6056 133.338 67.4329 133.362 67.2518C133.406 67.0056 133.428 66.7559 133.427 66.5058V65.6387C133.416 65.0594 133.547 64.4862 133.81 63.9696C133.935 63.7478 134.107 63.5566 134.315 63.4098C134.523 63.263 134.762 63.1644 135.012 63.1211C135.437 63.0096 135.886 63.0423 136.29 63.2143C136.723 63.3847 137.101 63.672 137.381 64.0442C137.683 64.4662 137.895 64.9453 138.006 65.4522C138.111 65.9565 138.111 66.4771 138.006 66.9814C137.921 67.4147 137.721 67.8173 137.427 68.1469C137.133 68.462 136.749 68.6799 136.327 68.7717L136.01 67.2518Z" fill="#0D0A19"/>
<path d="M135.646 77.6661C134.906 77.7561 134.156 77.6566 133.464 77.3771C132.874 77.1344 132.365 76.7265 132.001 76.2022C131.637 75.6716 131.421 75.0536 131.376 74.4119C131.317 73.7742 131.423 73.132 131.684 72.5471C131.95 71.9692 132.377 71.4803 132.914 71.1391C133.547 70.7455 134.268 70.5178 135.012 70.4771C135.752 70.3889 136.501 70.485 137.194 70.7568C137.784 71.0008 138.292 71.4084 138.658 71.9317C139.012 72.4712 139.226 73.0897 139.283 73.7323C139.34 74.3748 139.238 75.0215 138.985 75.6148C138.715 76.1909 138.289 76.6791 137.754 77.0228C137.114 77.4045 136.391 77.6253 135.646 77.6661V77.6661ZM135.507 76.0157C135.977 75.9879 136.437 75.8642 136.859 75.6521C137.19 75.4817 137.465 75.2195 137.651 74.8968C137.818 74.5723 137.886 74.206 137.847 73.8432C137.826 73.474 137.692 73.1203 137.461 72.8312C137.23 72.5422 136.916 72.3321 136.56 72.23C136.107 72.0952 135.631 72.054 135.162 72.1088C134.69 72.1339 134.23 72.2578 133.81 72.4725C133.476 72.6393 133.2 72.9024 133.017 73.2277C132.846 73.5509 132.778 73.9184 132.821 74.2814C132.844 74.6464 132.974 74.9966 133.194 75.2884C133.436 75.5806 133.761 75.792 134.127 75.8945C134.577 76.0291 135.049 76.0703 135.516 76.0157H135.507Z" fill="#0D0A19"/>
<path d="M51.224 127.644C51.2503 127.465 51.2503 127.283 51.224 127.103C51.206 126.935 51.1586 126.771 51.0841 126.618C51.0083 126.463 50.9075 126.321 50.7857 126.199C50.6447 126.059 50.4846 125.94 50.3102 125.845C49.9915 125.66 49.6234 125.578 49.2565 125.611C48.8855 125.648 48.5328 125.791 48.2402 126.022C47.8785 126.32 47.5804 126.688 47.3637 127.103C47.1318 127.511 46.9829 127.961 46.9255 128.427C46.8816 128.802 46.9497 129.182 47.1213 129.518C47.3 129.846 47.5729 130.112 47.9045 130.283C48.1909 130.445 48.509 130.544 48.837 130.572C49.1184 130.582 49.3966 130.51 49.6388 130.367C49.8869 130.203 50.089 129.978 50.2263 129.714L50.4967 129.919L48.7531 128.987L49.3405 127.905L52.1378 129.462L51.6715 130.311C51.395 130.856 50.9762 131.317 50.4594 131.644C49.9814 131.931 49.4317 132.077 48.8742 132.064C48.2779 132.04 47.696 131.874 47.1772 131.579C46.5815 131.273 46.079 130.813 45.7226 130.246C45.3908 129.682 45.2289 129.034 45.2564 128.381C45.2932 127.652 45.5042 126.942 45.8718 126.311C46.1346 125.803 46.4887 125.348 46.9162 124.968C47.2835 124.638 47.7153 124.387 48.1843 124.231C48.633 124.091 49.1064 124.046 49.5736 124.101C50.0547 124.162 50.5199 124.314 50.9442 124.548C51.3144 124.742 51.6487 124.997 51.9326 125.304C52.1927 125.577 52.404 125.892 52.5574 126.236C52.6997 126.576 52.7787 126.94 52.7905 127.308C52.7969 127.681 52.7336 128.051 52.604 128.399L51.224 127.644Z" fill="#0D0A19"/>
<path d="M53.2287 134.321L51.597 133.696L56.8279 127.421L58.7954 128.167L58.5529 136.335L56.9119 135.71L57.2102 129.454H57.1543L53.2287 134.321ZM54.2078 131.44L58.0774 132.904L57.6205 134.097L53.7509 132.633L54.2078 131.44Z" fill="#0D0A19"/>
<path d="M60.3338 136.775L62.0868 129.25L65.0613 129.94C65.5655 130.043 66.0383 130.263 66.4413 130.583C66.7833 130.862 67.0362 131.235 67.1686 131.656C67.2902 132.104 67.2902 132.578 67.1686 133.026C67.0813 133.48 66.868 133.9 66.5532 134.239C66.244 134.548 65.8523 134.761 65.4249 134.854C64.9105 134.947 64.3819 134.924 63.8771 134.789L61.891 134.332L62.1894 133.045L63.9144 133.455C64.1763 133.504 64.445 133.504 64.7069 133.455C64.9089 133.426 65.0956 133.331 65.2384 133.185C65.3887 133.019 65.4917 132.816 65.5368 132.597C65.5929 132.38 65.5929 132.153 65.5368 131.935C65.4705 131.737 65.3433 131.564 65.1732 131.441C64.9516 131.287 64.701 131.179 64.4365 131.124L63.3642 130.872L61.919 137.101L60.3338 136.775ZM65.2011 134.294L66.2734 138.164L64.5111 137.754L63.4855 133.903L65.2011 134.294Z" fill="#0D0A19"/>
<path d="M69.3134 138.639L67.579 138.471L70.9824 131.012L73.0711 131.217L74.9359 139.161L73.2016 138.993L71.8496 132.877H71.7843L69.3134 138.639ZM69.4998 135.609L73.6212 136.01L73.5 137.278L69.3786 136.877L69.4998 135.609Z" fill="#0D0A19"/>
<path d="M83.0106 131.178L83.3183 138.898L81.9103 138.954L78.3578 134.236H78.3018L78.4976 139.094L76.8659 139.159L76.5489 131.439L77.9848 131.383L81.5094 136.101H81.584L81.3882 131.243L83.0106 131.178Z" fill="#0D0A19"/>
<path d="M84.1763 132.418L83.9432 131.094L90.1999 130.013L90.4237 131.337L88.0926 131.738L89.1835 138.032L87.5984 138.302L86.5074 132.017L84.1763 132.418Z" fill="#0D0A19"/>
<path d="M92.6893 129.314L94.6847 136.773L93.1089 137.193L91.1135 129.734L92.6893 129.314Z" fill="#0D0A19"/>
<path d="M99.1511 135.289L96.587 136.221L93.8922 128.976L96.4751 128.044C97.1253 127.783 97.8308 127.69 98.5264 127.774C99.1498 127.864 99.7314 128.14 100.195 128.566C100.717 129.058 101.111 129.669 101.342 130.347C101.616 131.01 101.718 131.732 101.641 132.445C101.575 133.079 101.31 133.676 100.885 134.151C100.414 134.673 99.817 135.064 99.1511 135.289ZM97.6313 134.356L98.5637 133.993C98.9624 133.859 99.3235 133.632 99.6174 133.331C99.8699 133.05 100.018 132.691 100.037 132.314C100.051 131.833 99.9652 131.353 99.7852 130.906C99.6287 130.451 99.3812 130.032 99.0579 129.676C98.797 129.406 98.4512 129.235 98.0789 129.191C97.6596 129.154 97.2375 129.218 96.848 129.377L95.869 129.741L97.6313 134.356Z" fill="#0D0A19"/>
<path d="M109.128 126.274C109.503 126.918 109.712 127.646 109.734 128.391C109.747 129.029 109.575 129.657 109.24 130.2C108.902 130.749 108.422 131.197 107.851 131.496C107.281 131.815 106.638 131.979 105.986 131.972C105.35 131.956 104.732 131.759 104.205 131.403C103.608 130.961 103.114 130.394 102.759 129.742C102.403 129.089 102.193 128.368 102.144 127.626C102.132 126.988 102.303 126.36 102.638 125.817C102.987 125.277 103.467 124.832 104.032 124.524C104.597 124.216 105.23 124.055 105.874 124.055C106.512 124.066 107.134 124.26 107.664 124.615C108.281 125.04 108.783 125.61 109.128 126.274V126.274ZM107.674 127.067C107.456 126.649 107.158 126.278 106.797 125.976C106.508 125.737 106.154 125.591 105.781 125.556C105.418 125.54 105.057 125.623 104.738 125.798C104.419 125.972 104.154 126.23 103.972 126.545C103.801 126.875 103.733 127.248 103.776 127.617C103.833 128.087 103.985 128.541 104.224 128.95C104.435 129.372 104.734 129.744 105.1 130.041C105.378 130.286 105.726 130.436 106.095 130.47C106.464 130.503 106.834 130.419 107.151 130.228C107.481 130.062 107.752 129.799 107.925 129.473C108.096 129.143 108.164 128.769 108.121 128.4C108.063 127.93 107.911 127.477 107.674 127.067V127.067Z" fill="#0D0A19"/>
<defs>
<linearGradient id="paint0_linear_103_565" x1="77.5" y1="0" x2="77.5" y2="154.986" gradientUnits="userSpaceOnUse">
<stop stop-color="#FF385C"/>
<stop offset="1" stop-color="#FF1B44"/>
</linearGradient>
<radialGradient id="paint1_radial_103_565" cx="0" cy="0" r="1" gradientUnits="userSpaceOnUse" gradientTransform="translate(77.7199 60.1597) rotate(89.6644) scale(65.3933 65.3932)">
<stop stop-color="#140F26"/>
<stop offset="1" stop-color="#0D0A19"/>
</radialGradient>
</defs>
</svg>
